<?xml version="1.0" encoding="utf-8"?>
<svg xmlns="http://www.w3.org/2000/svg" height="128" width="128" viewBox="0 0 128 128">
  <g>
    <path id="path1" transform="rotate(0,64,64) translate(1.6,1.6) scale(3.9,3.9)  " fill="#5680FF" d="M6.9509888,19.851013C9.5009766,21.686005 12.618958,22.777985 16,22.777985 19.380981,22.777985 22.498962,21.686005 25.04895,19.851013 23.047974,22.696991 19.743958,24.562012 16,24.562012 12.255981,24.562012 8.9519653,22.696991 6.9509888,19.851013z M23.704956,11.042999C24.990967,11.036011 25.904968,11.880005 25.911987,13.221985 25.92395,15.466003 23.200989,16.601013 21.67395,18.428009L21.651978,18.428986C20.102966,16.618011 17.369995,15.514008 17.357971,13.27301 17.348999,11.93399 18.247009,11.074005 19.539001,11.066986 20.67395,11.061005 21.626953,12.36499 21.626953,12.36499 21.626953,12.36499 22.565979,11.049988 23.704956,11.042999z M12.466003,11.042999C13.751953,11.036011 14.665955,11.880005 14.672974,13.221985 14.684998,15.466003 11.961975,16.601013 10.434998,18.428009L10.412964,18.428986C8.8629761,16.618011 6.1300049,15.514008 6.117981,13.27301 6.1099854,11.93399 7.006958,11.074005 8.2999878,11.066986 9.4349976,11.061005 10.388,12.36499 10.388,12.36499 10.388,12.36499 11.326965,11.049988 12.466003,11.042999z M16,2.4970093C8.5549927,2.4970093 2.4979858,8.5549927 2.4979858,16 2.4979858,23.445007 8.5549927,29.502991 16,29.502991 23.445007,29.502991 29.502991,23.445007 29.502991,16 29.502991,8.5549927 23.445007,2.4970093 16,2.4970093z M16,0C24.836975,0 32,7.1629944 32,16 32,24.837006 24.836975,32 16,32 7.1629639,32 0,24.837006 0,16 0,7.1629944 7.1629639,0 16,0z" />
  </g>
</svg>
